<?xml version="1.0" encoding="utf-8"?>
<?xml-stylesheet type="text/xsl" href="rss1.xsl"?>
<rss version="2.0" xmlns:atom="http://www.w3.org/2005/Atom" xmlns:content="http://purl.org/rss/1.0/modules/content/" xmlns:dc="http://purl.org/dc/elements/1.1/" xmlns:media="http://search.yahoo.com/mrss/">
<channel>
 <title>Getty</title>
 <link>http://www.gettyimg.com/</link>
 <atom:link href="http://www.gettyimg.com/" rel="self" type="application/rss+xml" />

 
                <item>
                <title><![CDATA[【Apple Music】WEB-RiP - Nelly Furtado, Tove Lo, SG Lewis - Love Bites (Official Visualizer) 'A.M WEB-DL.1080.AAC2.0-fstambuk']]></title>
                <link><![CDATA[https://sharemania.us/threads/nelly-furtado-tove-lo-sg-lewis-love-bites-official-visualizer-a-m-web-dl-1080-aac2-0-fstambuk.244928/]]></link>
                <description><![CDATA[<article>
<blockquote class="messageText SelectQuoteContainer ugc baseHtml">
<div style="text-align: center"><img src="https://i.ibb.co/nCg2cqK/nelly-furtado-tove-lo-sg-lewis-love-bites-official-visualizer-a-m-web-dl-1080-aac2-0-fstambuk-vtm.gif" class="bbCodeImage LbImage" alt="[​IMG]" data-url="https://i.ibb.co/nCg2cqK/nelly-furtado-tove-lo-sg-lewis-love-bites-official-visualizer-a-m-web-dl-1080-aac2-0-fstambuk-vtm.gif" style=""><br>
​</div>
<div class="ToggleTriggerAnchor bbCodeSpoilerContainer">
<button type="button" class="button bbCodeSpoilerButton ToggleTrigger Tooltip JsOnly" data-target="> .SpoilerTarget"><span>Spoiler: <span class="SpoilerTitle">Apple Music</span></span></button>
<div class="SpoilerTarget bbCodeSpoilerText">
<div class="bbCodeBlock bbCodeCode">
<div class="type">Code:</div>
<pre>General
Complete name                            : Nelly Furtado, Tove Lo, SG Lewis - Love Bites (Official Visualizer) 'A.M WEB-DL.1080.AAC2.0-fstambuk'.m4v
Format                                   : MPEG-4
Codec ID                                 : M4V  (M4V /isom/iso2/avc1)
File size                                : 214 MiB
Duration                                 : 2 min 50 s
Overall bit rate mode                    : Variable
Overall bit rate                         : 10.6 Mb/s
Frame rate                               : 23.976 FPS
Movie name                               : Love Bites (Visualizer)
Performer                                : Nelly Furtado, Tove Lo &amp; SG Lewis
Genre                                    : Pop
ContentType                              : Music Video
Recorded date                            : 2024-05-22 07:00:00 UTC
Copyright                                : ℗ 2024 Nelstar Entertainment Inc./21 Entertainment Group Inc.
Cover                                    : Yes
Rating                                   : Clean
GenreID                                  : 1614
AlbumTitleID                             : 1260160
AppleStoreCatalogID                      : 1746823714

Video
ID                                       : 1
Format                                   : AVC
Format/Info                              : Advanced Video Codec
Format profile                           : High@L4
Format settings                          : CABAC / 4 Ref Frames
Format settings, CABAC                   : Yes
Format settings, Reference frames        : 4 frames
Format settings, Slice count             : 8 slices per frame
Codec ID                                 : avc1
Codec ID/Info                            : Advanced Video Coding
Duration                                 : 2 min 50 s
Bit rate                                 : 10.3 Mb/s
Width                                    : 1 920 pixels
Height                                   : 1 080 pixels
Display aspect ratio                     : 16:9
Frame rate mode                          : Constant
Frame rate                               : 23.976 (24000/1001) FPS
Color space                              : YUV
Chroma subsampling                       : 4:2:0
Bit depth                                : 8 bits
Scan type                                : Progressive
Bits/(Pixel*Frame)                       : 0.207
Stream size                              : 209 MiB (97%)
Title                                    : Core Media Video
Language                                 : English
Color range                              : Limited
Color primaries                          : BT.709
Transfer characteristics                 : BT.709
Matrix coefficients                      : BT.709
Codec configuration box                  : avcC

Audio
ID                                       : 2
Format                                   : AAC LC
Format/Info                              : Advanced Audio Codec Low Complexity
Codec ID                                 : 2 / 40 / mp4a-40-2
Duration                                 : 2 min 50 s
Bit rate mode                            : Constant
Bit rate                                 : 250 kb/s
Channel(s)                               : 2 channels
Channel layout                           : L R
Sampling rate                            : 48.0 kHz
Frame rate                               : 46.875 FPS (1024 SPF)
Compression mode                         : Lossy
Stream size                              : 5.07 MiB (2%)
Title                                    : Core Media Audio
Default                                  : Yes
Alternate group                          : 1

Text
ID                                       : 3
Format                                   : Timed Text
Muxing mode                              : sbtl
Codec ID                                 : tx3g
Duration                                 : 2 min 45 s
Bit rate mode                            : Variable
Bit rate                                 : 122 b/s
Frame rate                               : 0.410 FPS
Stream size                              : 2.47 KiB (0%)
Title                                    : Core Media Closed Caption
Language                                 : English
Default                                  : Yes
Forced                                   : No
Alternate group                          : 3
Count of events                          : 60

</pre>
</div><div style="text-align: center">​</div></div>
</div><div style="text-align: center"><br>
<div class="bbCodeBlock bbCodeVfcHH HiddenContent">
<div class="attribution type">Hidden Content:</div>
<blockquote>You must reply before you can see the hidden data contained here.</blockquote>
</div></div>
<div class="messageTextEndMarker">&nbsp;</div>
</blockquote>
</article>]]></description>
                <author><![CDATA[fstambuk]]></author>
                </item>

                </channel></rss>